<svg xmlns="http://www.w3.org/2000/svg" viewBox="0 0 92 92"><defs><style>.cls-1{fill:white;stroke:white;stroke-miterlimit:10;stroke-width:.5px;}.cls-2{fill:none;stroke:white;stroke-width:3px;}</style></defs><g id="Layer_2" data-name="Layer 2"><g id="Layer_3" data-name="Layer 3"><path class='cls-1' d="M46,3A43,43,0,1,1,3,46,43,43,0,0,1,46,3m0-3A46,46,0,1,0,92,46,46,46,0,0,0,46,0Z"/><path class="cls-2" d="M31.74,36.06v8.18a1.2,1.2,0,0,0,1.2,1.2h3.77a1.2,1.2,0,0,1,1.2,1.2v29a1.19,1.19,0,0,0,1.19,1.2H49.69a1.19,1.19,0,0,0,1.2-1.19l.21-29a1.19,1.19,0,0,1,1.19-1.19h5.34a1.19,1.19,0,0,0,1.19-1.08l.89-8.8a1.21,1.21,0,0,0-1.19-1.32H52.08a1.19,1.19,0,0,1-1.2-1.19V29.77c.1-3,1.42-4.68,4.56-4.48h3.62a1.2,1.2,0,0,0,1.2-1.2V16.41a1.2,1.2,0,0,0-1.2-1.2h-9.3C43,15.55,39,18.74,38.57,25.91l.07,7.73a1.19,1.19,0,0,1-1.19,1.2l-4.51,0A1.2,1.2,0,0,0,31.74,36.06Z"/></g></g></svg>