<svg xmlns="http://www.w3.org/2000/svg" viewBox="0 0 92.04 92.04"><defs><style>.cls-1{fill:none;stroke:white;stroke-miterlimit:10;stroke-width:3px;}
.cls-2{fill:white;stroke:none;}</style></defs><g id="Layer_2" data-name="Layer 2"><g id="Layer_3" data-name="Layer 3"><circle class="cls-1" cx="46.02" cy="46.02" r="44.52"/><path class='cls-2' d="M58.61,20.93a13.8,13.8,0,0,1,8.2,2.88,5.11,5.11,0,0,0,3,1H70a14.65,14.65,0,0,0,2.25-.23c-.46.41-1,.82-1.51,1.22l-5,3.67,6.22,0A15.88,15.88,0,0,0,74,29.28a8.52,8.52,0,0,1-2.1,1.37l-1.09.5-.07,1.2C70,44.58,66,54.66,59.23,61.49a33,33,0,0,1-24,9.62,44.06,44.06,0,0,1-14-2.38,26.18,26.18,0,0,0,12.65-5.62l3.15-2.67-4-.82c-4.62-.93-7.88-2.84-9.89-5.78H34.65L26.39,50c-4.62-2.13-7.46-5.06-8.61-8.9a16.31,16.31,0,0,0,2.76.42l4.55.32-2.85-3.57c-5.9-7.36-5.72-11.54-4.73-13.81,9.23,9,18.36,13.38,27.85,13.47l2.18,0-.16-2.17C47,31,48.18,27,50.71,24.31a10.65,10.65,0,0,1,7.9-3.38m0-2c-7.48,0-14,6.1-13.23,17C35.31,35.85,26,30.41,17.2,21.33,13.05,26.19,15,32.44,20.68,39.54a10.34,10.34,0,0,1-5.45-1.74c.3,6.37,3.79,11,10.32,14H19.87c2.07,5.55,6.61,8.5,12.75,9.74-4.67,4-10.87,5.71-18.28,5.71l-1.55,0a48.71,48.71,0,0,0,22.46,5.84c19.36,0,35.87-13.67,37.51-40.64,3-1.4,5-4,6.49-7.19a14.6,14.6,0,0,1-7.31,2.16c3.3-2.4,5-5,5.34-7.85C75.51,21.82,73,22.72,70,22.84h-.1A3.05,3.05,0,0,1,68,22.21a15.82,15.82,0,0,0-9.4-3.28Zm18.67.66h0Zm2,5.69h0Z"/></g></g></svg>